<svg xmlns="http://www.w3.org/2000/svg" width="155" height="186.34" viewBox="0 0 155 186.34"><title>logo-homepage</title><polygon points="71.03 101.86 0 101.86 0 54.99 2.52 54.99 2.52 99.34 71.03 99.34 71.03 101.86" fill="#fff"/><polygon points="110.74 46.98 108.22 46.98 108.22 2.52 12.1 2.52 12.1 0 110.74 0 110.74 46.98" fill="#fff"/><path d="M252.83,328.09v-2.6c0-2.84-1.3-4.06-2.79-4.06-2.33,0-3.07,1.22-3.07,3.73v17c0,2.52.74,3.73,3.07,3.73,2.09,0,2.79-1.21,2.79-3.4v-4h5.78v3.86c0,4.75-2.8,8.62-8.57,8.62-6,0-8.85-3.87-8.85-8.62V325c0-4.75,2.8-8.61,8.85-8.61,5.77,0,8.57,4.19,8.57,9.22v2.46Z" transform="translate(-229.07 -303.51)" fill="#fff"/><path d="M263.17,316.87H269v25.38c0,2.47,1,3.68,3.07,3.68s3.07-1.21,3.07-3.68V316.87h5.78V342c0,5.77-3.36,8.94-8.85,8.94s-8.85-3.17-8.85-8.94Z" transform="translate(-229.07 -303.51)" fill="#fff"/><path d="M285.9,350.49V316.87h5.35l7,19.23h.1V316.87h5.21v33.62h-5l-7.36-21h-.09v21Z" transform="translate(-229.07 -303.51)" fill="#fff"/><path d="M319.61,350.49h-5.77v-14l-7-19.65h5.87l4,12.81h.09l3.87-12.81h5.86l-7,19.65Z" transform="translate(-229.07 -303.51)" fill="#fff"/><path d="M254,367.17c-.28-3.45-1.68-6.05-5.17-6.05a4.3,4.3,0,0,0-4.61,4.42c0,7.59,13.5,7.68,13.5,18.48,0,5.36-3.07,8.57-8.61,8.57-5.26,0-8.43-3.86-8.52-9.5h3.35c.1,4,2,6.43,5.54,6.43,3,0,5-2,5-5.54,0-7.64-13.5-8.52-13.5-18.12,0-4.74,3.26-7.82,8.1-7.82s8,3.26,8.29,9.13Z" transform="translate(-229.07 -303.51)" fill="#fff"/><path d="M262.47,358.51h7.92c5.4,0,8.94,3.63,8.94,9.22s-3.54,9.22-8.94,9.22h-4.28v15.18h-3.64Zm3.64,15.36h3.82c3.63,0,5.77-1.95,5.77-6.14s-2.14-6.15-5.77-6.15h-3.82Z" transform="translate(-229.07 -303.51)" fill="#fff"/><path d="M286.6,358.51V373h9.87V358.51h3.63v33.62h-3.63v-16H286.6v16H283V358.51Z" transform="translate(-229.07 -303.51)" fill="#fff"/><path d="M317.16,371.08h3.06v5.52h-.9l-.35-.82a2.16,2.16,0,0,1-1.88,1,2.49,2.49,0,0,1-2.5-2.79v-5.6a2.58,2.58,0,0,1,2.74-2.79,2.71,2.71,0,0,1,2.8,3v.69h-1.78c0-1.62-.33-2-1.06-2-.46,0-.83.27-.83,1.19V374c0,.7.22,1.15.87,1.15s1-.42,1-1.51v-1.05h-1.19Z" transform="translate(-229.07 -303.51)" fill="#fff"/><path d="M324,376.6h-1.87V365.72h2.62c2.1,0,3.17.89,3.17,3.21,0,1.75-.68,2.45-1.31,2.74l1.58,4.93h-1.9L325,372.09a9.2,9.2,0,0,1-1,.05Zm0-6h.66c1,0,1.39-.38,1.39-1.67s-.38-1.67-1.39-1.67H324Z" transform="translate(-229.07 -303.51)" fill="#fff"/><path d="M330.74,376.6h-1.8l2-10.88h2.32l2,10.88h-1.81l-.33-2.41h-2.05Zm.61-4h1.5l-.74-4.67h0Z" transform="translate(-229.07 -303.51)" fill="#fff"/><path d="M336.35,365.72h2.77c1.93,0,2.95,1,2.95,3.28v4.31c0,2.23-1,3.29-2.95,3.29h-2.77Zm1.87,9.34h.64c1,0,1.35-.38,1.35-1.52v-4.76c0-1.15-.35-1.52-1.35-1.52h-.64Z" transform="translate(-229.07 -303.51)" fill="#fff"/><path d="M343.88,365.72h1.87v8.21c0,.8.32,1.19,1,1.19s1-.39,1-1.19v-8.21h1.87v8.13a2.87,2.87,0,1,1-5.73,0Z" transform="translate(-229.07 -303.51)" fill="#fff"/><path d="M352.5,376.6h-1.8l2-10.88H355l2,10.88h-1.8l-.34-2.41h-2.05Zm.61-4h1.5l-.74-4.67h0Z" transform="translate(-229.07 -303.51)" fill="#fff"/><path d="M358.64,367.35h-1.81v-1.63h5.48v1.63h-1.8v9.25h-1.87Z" transform="translate(-229.07 -303.51)" fill="#fff"/><path d="M363.42,376.6V365.72h5v1.63h-3.14v2.8h2.41v1.63h-2.41V375h3.35v1.63Z" transform="translate(-229.07 -303.51)" fill="#fff"/><path d="M318,388c-.07-.93-.57-1.2-1-1.2-.6,0-.94.39-.94,1.07,0,1.85,3.8,2.74,3.8,5.69a2.66,2.66,0,0,1-2.95,2.79,2.87,2.87,0,0,1-2.8-3l1.77-.25c.08,1.1.52,1.64,1.12,1.64a1,1,0,0,0,1.08-1c0-2.16-3.79-2.73-3.79-5.85,0-1.73,1-2.71,2.89-2.71a2.61,2.61,0,0,1,2.59,2.64Z" transform="translate(-229.07 -303.51)" fill="#fff"/><path d="M325.05,388.94v-.84c0-.92-.43-1.31-.91-1.31-.75,0-1,.39-1,1.2v5.52c0,.81.24,1.2,1,1.2s.91-.39.91-1.1V392.3h1.86v1.25a2.82,2.82,0,0,1-5.63,0V388a2.61,2.61,0,0,1,2.86-2.79,2.69,2.69,0,0,1,2.77,3v.8Z" transform="translate(-229.07 -303.51)" fill="#fff"/><path d="M328.81,396.19V385.31h1.87v4.43h2v-4.43h1.87v10.88h-1.87v-4.82h-2v4.82Z" transform="translate(-229.07 -303.51)" fill="#fff"/><path d="M336.35,388a2.86,2.86,0,0,1,5.72,0v5.6a2.86,2.86,0,0,1-5.72,0Zm1.87,5.56c0,.81.24,1.2,1,1.2s1-.39,1-1.2V388c0-.81-.25-1.2-1-1.2s-1,.39-1,1.2Z" transform="translate(-229.07 -303.51)" fill="#fff"/><path d="M343.88,388a2.87,2.87,0,0,1,5.73,0v5.6a2.87,2.87,0,0,1-5.73,0Zm1.87,5.56c0,.81.24,1.2,1,1.2s1-.39,1-1.2V388c0-.81-.24-1.2-1-1.2s-1,.39-1,1.2Z" transform="translate(-229.07 -303.51)" fill="#fff"/><path d="M351.33,396.19V385.31h1.87v9.25h2.93v1.63Z" transform="translate(-229.07 -303.51)" fill="#fff"/><path d="M314.59,407.54a2.86,2.86,0,0,1,5.72,0v5.6a2.86,2.86,0,0,1-5.72,0Zm1.87,5.56c0,.81.24,1.2,1,1.2s1-.39,1-1.2v-5.52c0-.81-.25-1.2-1-1.2s-1,.39-1,1.2Z" transform="translate(-229.07 -303.51)" fill="#fff"/><path d="M322.12,415.78V404.9h5.22v1.63H324v2.8h2.5V411H324v4.82Z" transform="translate(-229.07 -303.51)" fill="#fff"/><path d="M332.16,415.78V404.9h2.68c2.31,0,3.37.89,3.37,3.21s-1.06,3.21-3.37,3.21H334v4.46Zm1.87-6h.72c1.22,0,1.6-.37,1.6-1.67s-.38-1.67-1.6-1.67H334Z" transform="translate(-229.07 -303.51)" fill="#fff"/><path d="M339.69,404.9h1.87v8.21c0,.8.32,1.19,1,1.19s1-.39,1-1.19V404.9h1.87V413a2.87,2.87,0,1,1-5.73,0Z" transform="translate(-229.07 -303.51)" fill="#fff"/><path d="M347.23,404.9H350a2.55,2.55,0,0,1,2.89,2.88,2.33,2.33,0,0,1-1.29,2.27,2.5,2.5,0,0,1,1.5,2.58c0,1.79-.79,3.15-2.92,3.15h-2.95Zm1.87,4.46h.68A1.23,1.23,0,0,0,351,408c0-1-.39-1.53-1.22-1.53h-.7Zm0,4.88h.78c1,0,1.36-.57,1.36-1.67s-.43-1.67-1.54-1.67h-.6Z" transform="translate(-229.07 -303.51)" fill="#fff"/><path d="M354.67,415.78V404.9h1.87v9.25h2.94v1.63Z" transform="translate(-229.07 -303.51)" fill="#fff"/><path d="M360.88,415.78V404.9h1.87v10.88Z" transform="translate(-229.07 -303.51)" fill="#fff"/><path d="M368.58,408.53v-.84c0-.92-.42-1.31-.9-1.31-.76,0-1,.39-1,1.2v5.52c0,.81.24,1.2,1,1.2s.9-.39.9-1.1v-1.31h1.87v1.25a2.82,2.82,0,0,1-5.63,0v-5.6a2.61,2.61,0,0,1,2.86-2.79,2.69,2.69,0,0,1,2.77,3v.8Z" transform="translate(-229.07 -303.51)" fill="#fff"/><path d="M314.59,435.37V424.49h1.87v4.43h2v-4.43h1.86v10.88h-1.86v-4.82h-2v4.82Z" transform="translate(-229.07 -303.51)" fill="#fff"/><path d="M322.12,435.37V424.49h5v1.63H324v2.8h2.41v1.63H324v3.19h3.35v1.63Z" transform="translate(-229.07 -303.51)" fill="#fff"/><path d="M329.9,435.37h-1.81l2-10.88h2.32l2,10.88h-1.81l-.33-2.41h-2Zm.6-4H332l-.74-4.67h0Z" transform="translate(-229.07 -303.51)" fill="#fff"/><path d="M335.41,435.37V424.49h1.87v9.25h2.94v1.63Z" transform="translate(-229.07 -303.51)" fill="#fff"/><path d="M342.18,426.12h-1.8v-1.63h5.48v1.63h-1.81v9.25h-1.87Z" transform="translate(-229.07 -303.51)" fill="#fff"/><path d="M347,435.37V424.49h1.87v4.43h2v-4.43h1.87v10.88h-1.87v-4.82h-2v4.82Z" transform="translate(-229.07 -303.51)" fill="#fff"/><path d="M321.31,450.09a15.89,15.89,0,0,1-1,2.85,2.12,2.12,0,0,0,1,.51v1.66a3.14,3.14,0,0,1-2.11-.83,2.8,2.8,0,0,1-2.14.83,2.43,2.43,0,0,1-2.6-2.55,4.84,4.84,0,0,1,1.43-3.07,8.25,8.25,0,0,1-.86-3,2.29,2.29,0,0,1,2.37-2.56,2.09,2.09,0,0,1,2.21,2.26c0,1.36-1,2.37-1.87,3.3a12.58,12.58,0,0,0,1.36,2.22,14.88,14.88,0,0,0,.66-2Zm-4,3.39a1.13,1.13,0,0,0,.85-.31,10.85,10.85,0,0,1-1.49-2.19,2.14,2.14,0,0,0-.46,1.34A1.1,1.1,0,0,0,317.29,453.48Zm-.2-5.3a3.44,3.44,0,0,0,.9-2c0-.84-.24-1.17-.68-1.17s-.73.39-.73,1.07A5.83,5.83,0,0,0,317.09,448.18Z" transform="translate(-229.07 -303.51)" fill="#fff"/><path d="M326.31,455V444.08h1.87v4.43h2v-4.43H332V455h-1.87v-4.82h-2V455Z" transform="translate(-229.07 -303.51)" fill="#fff"/><path d="M333.85,455V444.08h5v1.63h-3.14v2.8h2.42v1.63h-2.42v3.19h3.35V455Z" transform="translate(-229.07 -303.51)" fill="#fff"/><path d="M341.62,455h-1.8l2-10.88h2.32l2,10.88h-1.81l-.33-2.41H342Zm.61-4h1.5l-.74-4.67h0Z" transform="translate(-229.07 -303.51)" fill="#fff"/><path d="M347.14,455V444.08H349v9.25h2.93V455Z" transform="translate(-229.07 -303.51)" fill="#fff"/><path d="M353.91,445.71H352.1v-1.63h5.48v1.63h-1.8V455h-1.87Z" transform="translate(-229.07 -303.51)" fill="#fff"/><path d="M358.69,455V444.08h1.86v4.43h2v-4.43h1.87V455h-1.87v-4.82h-2V455Z" transform="translate(-229.07 -303.51)" fill="#fff"/><path d="M314.59,474.55V463.67h2.68c2.3,0,3.37.89,3.37,3.21s-1.07,3.21-3.37,3.21h-.81v4.46Zm1.87-6h.72c1.22,0,1.6-.37,1.6-1.67s-.38-1.67-1.6-1.67h-.72Z" transform="translate(-229.07 -303.51)" fill="#fff"/><path d="M322.12,466.31a2.87,2.87,0,0,1,5.73,0v5.6a2.87,2.87,0,0,1-5.73,0Zm1.87,5.56c0,.81.24,1.2,1,1.2s1-.39,1-1.2v-5.51c0-.82-.24-1.21-1-1.21s-1,.39-1,1.21Z" transform="translate(-229.07 -303.51)" fill="#fff"/><path d="M329.57,474.55V463.67h1.87v9.25h2.93v1.63Z" transform="translate(-229.07 -303.51)" fill="#fff"/><path d="M335.78,474.55V463.67h1.86v10.88Z" transform="translate(-229.07 -303.51)" fill="#fff"/><path d="M343.48,467.3v-.84c0-.92-.43-1.31-.91-1.31-.75,0-1,.39-1,1.21v5.51c0,.81.24,1.2,1,1.2s.91-.39.91-1.1v-1.31h1.86v1.25a2.82,2.82,0,0,1-5.63,0v-5.6a2.61,2.61,0,0,1,2.86-2.79,2.7,2.7,0,0,1,2.77,3v.79Z" transform="translate(-229.07 -303.51)" fill="#fff"/><path d="M350.62,474.55h-1.87V470l-2.26-6.36h1.9l1.31,4.15h0l1.25-4.15h1.9L350.62,470Z" transform="translate(-229.07 -303.51)" fill="#fff"/><polygon points="155 186.34 85.52 186.34 85.52 183.83 152.48 183.83 152.48 54.99 155 54.99 155 186.34" fill="#fff"/></svg>