<svg xmlns="http://www.w3.org/2000/svg" width="125" height="43.14" viewBox="0 0 125 43.14"><title>logo-header</title><polygon points="125 33.48 122.83 33.48 122.83 2.17 73.56 2.17 73.56 0 125 0 125 33.48" fill="#00b1da"/><polygon points="69.63 43.14 0 43.14 0 9.66 2.17 9.66 2.17 40.97 69.63 40.97 69.63 43.14" fill="#00b1da"/><path d="M261.38,392v-1.85c0-2-.92-2.87-2-2.87-1.65,0-2.17.86-2.17,2.64V402c0,1.78.52,2.64,2.17,2.64,1.49,0,2-.86,2-2.41V399.4h4.1v2.74c0,3.36-2,6.1-6.08,6.1-4.29,0-6.27-2.74-6.27-6.1V389.86c0-3.36,2-6.1,6.27-6.1,4.1,0,6.08,3,6.08,6.53V392Z" transform="translate(-243.5 -374.43)" fill="#0078BF"/><path d="M268.71,384.09h4.09v18c0,1.75.69,2.61,2.18,2.61s2.18-.86,2.18-2.61v-18h4.09v17.82c0,4.09-2.38,6.33-6.27,6.33s-6.27-2.24-6.27-6.33Z" transform="translate(-243.5 -374.43)" fill="#0078BF"/><path d="M284.81,407.91V384.09h3.8l5,13.63h.07V384.09h3.69v23.82h-3.56L288.58,393h-.07v14.88Z" transform="translate(-243.5 -374.43)" fill="#0078BF"/><path d="M308.7,407.91h-4.09V398l-4.95-13.92h4.16l2.87,9.07h.07l2.74-9.07h4.15L308.7,398Z" transform="translate(-243.5 -374.43)" fill="#0078BF"/><path d="M326.18,390.23c-.2-2.45-1.19-4.29-3.67-4.29a3,3,0,0,0-3.26,3.13c0,5.38,9.57,5.45,9.57,13.1,0,3.79-2.18,6.07-6.11,6.07-3.73,0-6-2.74-6-6.73h2.38c.06,2.81,1.38,4.55,3.93,4.55,2.14,0,3.53-1.38,3.53-3.92,0-5.41-9.57-6-9.57-12.84,0-3.36,2.31-5.54,5.74-5.54s5.67,2.31,5.87,6.47Z" transform="translate(-243.5 -374.43)" fill="#00b1da"/><path d="M332.18,384.09h5.61c3.83,0,6.34,2.57,6.34,6.53s-2.51,6.53-6.34,6.53h-3v10.76h-2.58ZM334.76,395h2.7c2.58,0,4.09-1.39,4.09-4.36s-1.51-4.35-4.09-4.35h-2.7Z" transform="translate(-243.5 -374.43)" fill="#00b1da"/><path d="M349.27,384.09v10.29h7V384.09h2.57v23.82h-2.57V396.56h-7v11.35H346.7V384.09Z" transform="translate(-243.5 -374.43)" fill="#00b1da"/></svg>