<svg xmlns="http://www.w3.org/2000/svg" width="50" height="48.98" viewBox="0 0 50 48.98"><title>logo-CUNY-footer</title><polygon points="19.2 24.82 19.2 37.77 7.66 24.82 1.69 24.82 1.69 48.98 8.33 48.98 8.33 36.03 19.72 48.98 25.85 48.98 25.85 24.82 19.2 24.82" fill="#a9b5c0"/><path d="M331,386.19V372.73h-6.65v13.46a4.67,4.67,0,0,1-.27,1.62,4,4,0,0,1-1.18,1.63,6.33,6.33,0,0,1-4,1.4h0a6.35,6.35,0,0,1-4-1.4,4.11,4.11,0,0,1-1.17-1.63,4.45,4.45,0,0,1-.28-1.62V372.73h-6.64v15.08c0,5.34,5.77,9.58,11.77,9.67h.61c6-.09,11.77-4.21,11.77-9.67Z" transform="translate(-281 -371.51)" fill="#a9b5c0"/><path d="M299.61,387.81a6.14,6.14,0,0,1-5.17,3h-.09a6.34,6.34,0,0,1,0-12.67h.09a6.12,6.12,0,0,1,5.17,3h7.24c0-5.45-5.74-9.56-11.72-9.67H294a13,13,0,0,0-13,13h0a13,13,0,0,0,13,13h1.15c6-.11,11.72-4.22,11.72-9.67Z" transform="translate(-281 -371.51)" fill="#a9b5c0"/><polygon points="43.36 24.82 37.92 35.91 32.49 24.82 25.85 24.82 34.6 42.68 34.6 48.98 41.24 48.98 41.24 42.68 50 24.82 43.36 24.82" fill="#a9b5c0"/></svg>